<?xml version="1.0" encoding="UTF-8"?>
<!DOCTYPE svg PUBLIC "-//W3C//DTD SVG 1.1//EN" "http://www.w3.org/Graphics/SVG/1.1/DTD/svg11.dtd">
<!-- Creator: CorelDRAW 2018 (64-Bit) -->
<?xml-stylesheet href="biljka2.css" type="text/css"?>
<svg xmlns="http://www.w3.org/2000/svg" xml:space="preserve" width="250px" height="250px" version="1.1" style="shape-rendering:geometricPrecision; text-rendering:geometricPrecision; image-rendering:optimizeQuality; fill-rule:evenodd; clip-rule:evenodd"
viewBox="0 0 250 250"
 xmlns:xlink="http://www.w3.org/1999/xlink">
 <g id="biljka2">
  <metadata id="CorelCorpID_0Corel-Layer"/>
  <circle id="krug" class="fil0 str0" cx="125" cy="125" r="106.602"/>
  <path id="tlo" class="fil0 str0" d="M183.822 213.918c-16.859,11.175 -37.081,17.683 -58.822,17.683 -23.252,0 -44.765,-7.444 -62.286,-20.079 12.373,-9.316 20.047,-10.742 26.239,-10.4 15.068,0.833 28.7,10.431 40.079,12.249 15.538,2.482 28.739,-10.136 54.79,0.547z"/>
  <path id="stablo" class="fil0 str0" d="M136.967 213.539c13.96,-46.812 2.131,-88.805 -20.64,-132.119"/>
  <path id="grancica-1" class="fil0 str0" d="M142.692 175.425c0.406,-10.913 -15.717,-25.935 -28.422,-29.855"/>
  <path id="grancica-3" class="fil0 str0" d="M141.02 152.057c7.036,-16.463 6.069,-34.711 13.865,-37.777"/>
  <path id="list-2" class="fil0 str0" d="M130.48 26.464c-5.497,22.795 7.816,47.882 -20.413,57.748 -33.666,-2.988 -7.324,-54.565 20.413,-57.748z"/>
  <path id="list-1" class="fil0 str0" d="M67.285 145.532c-16.025,-22.762 -0.195,-52.692 3.819,-63.752 4.91,8.127 12.456,12.698 19.919,17.878 10.829,7.516 33.787,32.457 23.247,45.912 -10.503,13.403 -36.746,14.528 -46.985,-0.038z"/>
  <path id="list-3" class="fil0 str0" d="M143.31 83.435c4.942,-13.687 23.466,-12.21 27.805,-41.697 5.638,8.699 26.263,34.342 18.659,55.564 -4.624,12.924 -23.811,23.827 -34.889,16.978 -9.014,-5.568 -15.072,-21.118 -11.575,-30.845z"/>
 </g>
</svg>
